<?xml version="1.0" encoding="UTF-8" standalone="no"?>
<svg width="16px" height="13px" viewBox="0 0 16 13" version="1.1" xmlns="http://www.w3.org/2000/svg" xmlns:xlink="http://www.w3.org/1999/xlink" xmlns:sketch="http://www.bohemiancoding.com/sketch/ns">
    <!-- Generator: Sketch 3.5.1 (25234) - http://www.bohemiancoding.com/sketch -->
    <title>Slice 1</title>
    <desc>Created with Sketch.</desc>
    <defs></defs>
    <g id="Page-1" stroke="none" stroke-width="1" fill="none" fill-rule="evenodd" sketch:type="MSPage">
        <g id="icon-menu" sketch:type="MSLayerGroup" fill="#FFFFFF">
            <path d="M14.292,7.997 L0.782,7.997 C0.43,7.997 0.215,7.883 0.137,7.657 C0.059,7.427 0.027,7.125 0.039,6.747 C0.025,6.37 0.059,6.067 0.136,5.84 C0.214,5.612 0.429,5.498 0.78,5.498 L14.292,5.498 C14.642,5.498 14.858,5.612 14.936,5.84 C15.014,6.068 15.046,6.37 15.033,6.748 C15.046,7.125 15.013,7.428 14.936,7.656 C14.858,7.883 14.643,7.996 14.292,7.996 L14.292,7.997 Z M14.292,2.999 L0.782,2.999 C0.43,3 0.214,2.884 0.136,2.656 C0.06,2.43 0.027,2.127 0.04,1.75 C0.026,1.372 0.06,1.07 0.137,0.842 C0.215,0.614 0.43,0.5 0.78,0.5 L14.292,0.5 C14.642,0.5 14.858,0.614 14.936,0.842 C15.014,1.069 15.046,1.372 15.033,1.75 C15.046,2.127 15.013,2.43 14.936,2.657 C14.858,2.885 14.643,2.999 14.292,2.999 L14.292,2.999 Z M0.782,10.495 L14.292,10.495 C14.642,10.495 14.858,10.609 14.936,10.837 C15.014,11.065 15.046,11.367 15.033,11.745 C15.046,12.122 15.013,12.425 14.936,12.653 C14.858,12.88 14.643,12.993 14.292,12.993 L0.782,12.993 C0.43,12.993 0.215,12.88 0.137,12.653 C0.059,12.425 0.027,12.123 0.039,11.745 C0.025,11.367 0.059,11.065 0.136,10.837 C0.214,10.609 0.429,10.495 0.78,10.495 L0.782,10.495 Z" id="Shape" sketch:type="MSShapeGroup"></path>
        </g>
    </g>
</svg>