<svg width="17" height="17" viewBox="0 0 17 17" xmlns="http://www.w3.org/2000/svg"><title>Slice 1</title><path d="M12.75 11.25h3.75V10h-3.75V8.75l3.965-1.29-.43-1.17L12.75 7.5V6.25c-.013-.352-.137-.645-.37-.88-.235-.233-.528-.357-.88-.37V3.75c0-.313-.098-.576-.293-.79-.195-.216-.443-.356-.742-.42l1.29-1.29H14V0h-2.754l-2.5 2.5h-.742L5.504 0H2.75v1.25h2.246l1.29 1.29c-.3.064-.544.204-.733.42-.19.214-.29.477-.303.79V5c-.352.013-.645.137-.88.37-.233.235-.357.528-.37.88V7.5L.465 6.29l-.43 1.17L4 8.75V10H.25v1.25H4v1.25L.035 13.79l.43 1.17L4 13.75V15c.013.352.137.645.37.88.235.233.528.357.88.37H6.5L7.75 15V6.25H9V15l1.25 1.25h1.25c.352-.013.645-.137.88-.37.233-.235.357-.528.37-.88v-1.25l3.535 1.21.43-1.17-3.965-1.29v-1.25zM10.25 5H6.5V3.75h3.75V5z" fill="#000" fill-rule="evenodd"/></svg>