<?xml version="1.0" encoding="UTF-8" standalone="no"?>
<svg width="121px" height="102px" viewBox="0 0 121 102" version="1.1" xmlns="http://www.w3.org/2000/svg" xmlns:xlink="http://www.w3.org/1999/xlink" xmlns:sketch="http://www.bohemiancoding.com/sketch/ns">
    <!-- Generator: Sketch 3.5.1 (25234) - http://www.bohemiancoding.com/sketch -->
    <title>Untitled 2</title>
    <desc>Created with Sketch.</desc>
    <defs></defs>
    <g id="Page-1" stroke="none" stroke-width="1" fill="none" fill-rule="evenodd" sketch:type="MSPage">
        <path d="M121,12.6831055 C116.509766,14.6918945 111.783203,16.0507812 106.702148,16.6416016 C111.901367,13.5693359 115.800781,8.66552734 117.632324,2.87548828 C112.905762,5.71142578 107.529297,7.77929687 101.975586,8.90185547 C97.3081055,4.17529297 90.8681641,1.10302734 83.7192383,1.10302734 C70.012207,1.10302734 58.9638672,12.1513672 58.9638672,25.8583984 C58.9638672,27.8081055 59.0820312,29.8168945 59.4956055,31.5893555 C38.9350586,30.4667969 20.737793,21.1318359 8.38964844,6.125 C6.32177734,9.78808594 5.02197266,13.5693359 5.02197266,18.1777344 C5.02197266,26.6855469 9.39404297,34.2480469 16.1293945,38.7382812 C12.0527344,38.6201172 8.27148438,37.4975586 4.90380859,35.6660156 L4.90380859,35.9614258 C4.90380859,48.0141602 13.4707031,58.0581055 24.8144531,60.3032227 C22.6875,60.894043 20.4423828,61.1894531 18.1972656,61.1894531 C16.6611328,61.1894531 15.125,61.012207 13.5888672,60.7167969 C16.6611328,70.5244141 25.9370117,77.8505859 36.6899414,77.96875 C28.300293,84.7041016 17.4882812,89.7260742 5.90820312,89.7260742 C3.89941406,89.7260742 1.94970703,89.6079102 0,89.3125 C10.9301758,96.3432617 24.1054688,99.4155273 38.1079102,99.4155273 C83.7192383,99.4155273 108.651855,61.6030273 108.651855,28.8125 L108.651855,25.5629883 C113.4375,22.0771484 117.632324,17.7641602 121,12.6831055 L121,12.6831055 Z" id="twitter" fill="#55ACEE" sketch:type="MSShapeGroup"></path>
    </g>
</svg>