<?xml version="1.0" encoding="UTF-8" standalone="no"?>
<svg width="102px" height="100px" viewBox="0 0 102 100" version="1.1" xmlns="http://www.w3.org/2000/svg" xmlns:xlink="http://www.w3.org/1999/xlink" xmlns:sketch="http://www.bohemiancoding.com/sketch/ns">
    <!-- Generator: Sketch 3.5.1 (25234) - http://www.bohemiancoding.com/sketch -->
    <title>Untitled 2</title>
    <desc>Created with Sketch.</desc>
    <defs></defs>
    <g id="Page-1" stroke="none" stroke-width="1" fill="none" fill-rule="evenodd" sketch:type="MSPage">
        <path d="M51,0.125 C36.5233651,0.45703291 24.4873527,5.42085046 14.8916016,15.0166016 C5.29585046,24.6123527 0.33203291,36.6483651 0,51.125 C0.199219746,62.5469321 3.48629625,72.5741756 9.86132812,81.2070312 C16.23636,89.8398869 24.570261,95.9492008 34.8632812,99.5351562 C36.1250063,99.734376 37.0214817,99.5517606 37.5527344,98.9873047 C38.083987,98.4228487 38.3496094,97.7753943 38.3496094,97.0449219 L38.25,87.5820312 C32.0077813,88.5117234 27.6914182,88.1464927 25.3007812,86.4863281 C22.9101443,84.8261636 21.515627,83.1660239 21.1171875,81.5058594 C20.7851546,80.6425738 20.1210987,79.4140705 19.125,77.8203125 C18.1289013,76.2265545 17.0664119,75.0644568 15.9375,74.3339844 C14.8749947,73.8027317 14.0947291,73.1386759 13.5966797,72.3417969 C13.0986303,71.5449179 13.8456932,71.1132816 15.8378906,71.046875 C17.8300881,71.1132816 19.5068291,71.7773374 20.8681641,73.0390625 C22.229499,74.3007876 23.1425758,75.3632769 23.6074219,76.2265625 C26.0644654,79.8789245 28.7538916,81.7216795 31.6757812,81.7548828 C34.5976709,81.7880861 36.8554608,81.3730512 38.4492188,80.5097656 C38.7148451,78.8496011 39.12988,77.4550838 39.6943359,76.3261719 C40.2587919,75.19726 40.9394491,74.3007846 41.7363281,73.6367188 C35.7597357,73.2382793 30.4472889,71.3291187 25.7988281,67.9091797 C21.1503674,64.4892407 18.6933607,57.9980947 18.4277344,48.4355469 C18.494141,45.6464704 18.9755815,43.1230582 19.8720703,40.8652344 C20.7685592,38.6074106 22.0468667,36.5820402 23.7070312,34.7890625 C23.3085918,34.1249967 22.9765638,32.5976682 22.7109375,30.2070312 C22.4453112,27.8163943 22.9433531,24.8281429 24.2050781,21.2421875 C24.2050781,21.0429678 25.3339731,21.0927719 27.5917969,21.3916016 C29.8496207,21.6904312 33.4023195,23.400375 38.25,26.5214844 C42.3672081,25.3925725 46.6171656,24.828125 51,24.828125 C55.3828344,24.828125 59.6327919,25.3925725 63.75,26.5214844 C68.5976805,23.400375 72.1503793,21.6904312 74.4082031,21.3916016 C76.6660269,21.0927719 77.7949219,21.0429678 77.7949219,21.2421875 C79.0566469,24.8281429 79.5546888,27.8163943 79.2890625,30.2070312 C79.0234362,32.5976682 78.6914082,34.1249967 78.2929688,34.7890625 C79.9531333,36.5820402 81.2314408,38.6074106 82.1279297,40.8652344 C83.0244185,43.1230582 83.505859,45.6464704 83.5722656,48.4355469 C83.3066393,57.9980947 80.8330312,64.4892407 76.1513672,67.9091797 C71.4697032,71.3291187 66.1738577,73.2382793 60.2636719,73.6367188 C61.193364,74.4335977 61.9902311,75.6122969 62.6542969,77.1728516 C63.3183627,78.7334062 63.6835934,80.7089724 63.75,83.0996094 L63.6503906,97.0449219 C63.6503906,97.7753943 63.916013,98.4228487 64.4472656,98.9873047 C64.9785183,99.5517606 65.8749937,99.734376 67.1367188,99.5351562 C77.429739,95.9492008 85.76364,89.8398869 92.1386719,81.2070312 C98.5137037,72.5741756 101.80078,62.5469321 102,51.125 C101.667967,36.6483651 96.7041495,24.6123527 87.1083984,15.0166016 C77.5126473,5.42085046 65.4766349,0.45703291 51,0.125 L51,0.125 Z" id="" fill="#000000" sketch:type="MSShapeGroup"></path>
    </g>
</svg>