<?xml version="1.0" encoding="UTF-8" standalone="no"?>
<svg width="101px" height="103px" viewBox="0 0 101 103" version="1.1" xmlns="http://www.w3.org/2000/svg" xmlns:xlink="http://www.w3.org/1999/xlink" xmlns:sketch="http://www.bohemiancoding.com/sketch/ns">
    <!-- Generator: Sketch 3.5.1 (25234) - http://www.bohemiancoding.com/sketch -->
    <title>Untitled 2</title>
    <desc>Created with Sketch.</desc>
    <defs></defs>
    <g id="Page-1" stroke="none" stroke-width="1" fill="none" fill-rule="evenodd" sketch:type="MSPage">
        <g id="logo_googleg_48dp" sketch:type="MSLayerGroup" transform="translate(0.000000, 1.000000)">
            <path d="M98.4126316,51.3516746 C98.4126316,47.7912919 98.09311,44.3678469 97.4997129,41.0813397 L50.2105263,41.0813397 L50.2105263,60.5036842 L77.2329187,60.5036842 C76.0689474,66.78 72.5313876,72.0977512 67.2136364,75.658134 L67.2136364,88.2564115 L83.4407656,88.2564115 C92.9351196,79.5152153 98.4126316,66.6430622 98.4126316,51.3516746 L98.4126316,51.3516746 Z" id="Shape" fill="#4285F4" sketch:type="MSShapeGroup"></path>
            <path d="M50.2105263,100.421053 C63.7673684,100.421053 75.1332057,95.9249282 83.4407656,88.2564115 L67.2136364,75.658134 C62.717512,78.6707656 56.9661244,80.4509569 50.2105263,80.4509569 C37.1329665,80.4509569 26.0638278,71.6184689 22.1154545,59.7505263 L5.34057416,59.7505263 L5.34057416,72.7596172 C13.602488,89.1693301 30.5827751,100.421053 50.2105263,100.421053 L50.2105263,100.421053 Z" id="Shape" fill="#34A853" sketch:type="MSShapeGroup"></path>
            <path d="M22.1154545,59.7505263 C21.111244,56.7378947 20.5406699,53.5198565 20.5406699,50.2105263 C20.5406699,46.9011962 21.111244,43.6831579 22.1154545,40.6705263 L22.1154545,27.6614354 L5.34057416,27.6614354 C1.93995215,34.4398565 0,42.1083732 0,50.2105263 C0,58.3126794 1.93995215,65.9811962 5.34057416,72.7596172 L22.1154545,59.7505263 L22.1154545,59.7505263 Z" id="Shape" fill="#FBBC05" sketch:type="MSShapeGroup"></path>
            <path d="M50.2105263,19.9700957 C57.5823445,19.9700957 64.2010048,22.503445 69.4046411,27.4788517 L83.805933,13.0775598 C75.1103828,4.9754067 63.7445455,0 50.2105263,0 C30.5827751,0 13.602488,11.2517225 5.34057416,27.6614354 L22.1154545,40.6705263 C26.0638278,28.8025837 37.1329665,19.9700957 50.2105263,19.9700957 L50.2105263,19.9700957 Z" id="Shape" fill="#EA4335" sketch:type="MSShapeGroup"></path>
            <path d="M0,0 L100.421053,0 L100.421053,100.421053 L0,100.421053 L0,0 Z" id="Shape" sketch:type="MSShapeGroup"></path>
        </g>
    </g>
</svg>