<svg width="15" height="13" viewBox="0 0 15 13" xmlns="http://www.w3.org/2000/svg"><title>Untitled 2</title><path d="M14.292 7.997H.782c-.352 0-.567-.114-.645-.34-.078-.23-.11-.532-.098-.91-.014-.377.02-.68.097-.907.078-.228.293-.342.644-.342h13.512c.35 0 .566.114.644.342.078.228.11.53.097.908.013.377-.02.68-.097.908-.078.227-.293.34-.644.34zm0-4.998H.782C.43 3 .214 2.884.136 2.656.06 2.43.027 2.127.04 1.75c-.014-.378.02-.68.097-.908C.215.614.43.5.78.5h13.512c.35 0 .566.114.644.342.078.227.11.53.097.908.013.377-.02.68-.097.907-.078.228-.293.342-.644.342zM.782 10.495h13.51c.35 0 .566.114.644.342.078.228.11.53.097.908.013.377-.02.68-.097.908-.078.227-.293.34-.644.34H.782c-.352 0-.567-.113-.645-.34-.078-.228-.11-.53-.098-.908-.014-.378.02-.68.097-.908.078-.228.293-.342.644-.342z" fill="#000" fill-rule="evenodd"/></svg>