<svg viewBox="0 0 400 400" xmlns="http://www.w3.org/2000/svg" fill-rule="evenodd" clip-rule="evenodd" stroke-linejoin="round" stroke-miterlimit="1.414"><path d="M136.31 361.7c-18.605-7.324-35.642-17.77-50.458-30.695 14.82 12.935 31.853 23.386 50.457 30.696zm80.494 30.023c-5.53.532-11.14.777-16.804.777-19.796 0-38.898-2.995-56.865-8.555l-.21-.066c-3.114-.967-6.193-2.01-9.26-3.138-27.083-9.955-51.317-25.826-71.12-46.084l-.116-.118-4.897-5.136-.772-.89C26.617 294.974 8.098 250.807 7.56 202.372l-.002-.142L7.5 200C7.5 93.756 93.757 7.5 200 7.5S392.5 93.756 392.5 200c0 25.228-4.864 49.33-13.76 71.403l-.085.218c-14.822 36.978-40.804 68.294-73.794 89.74l-5.074 3.254-2.487 1.43V344.01l6.668-4.745.893-.702c36.517-27.663 61.77-69.422 67.594-117.168l-.017.14c-5.88 47.682-31.108 89.398-67.576 117.028V221.395h67.594l.022-.164c.9-6.943 1.34-14.036 1.34-21.23 0-95.93-77.885-173.815-173.816-173.815-95.932 0-173.815 77.884-173.815 173.815l.056 2.23h30.52v96.152l3.975 5.587 1.694 2.153v-166.38h73.88V361.7l3.952 1.56 2.662.902V241.314h73.88V372.99l.957-.073 5.66-.72v-193.93h73.88v187.778c-12.442 7.336-25.783 13.305-39.807 17.7H223.42h34.073c-12.964 4.064-26.522 6.79-40.524 7.965l-.166.013z" fill="#fff"/></svg>