<?xml version="1.0" standalone="no"?>
<!DOCTYPE svg PUBLIC "-//W3C//DTD SVG 1.1//EN" "http://www.w3.org/Graphics/SVG/1.1/DTD/svg11.dtd">
<svg width="100%" height="100%" viewBox="0 0 400 400" version="1.1" xmlns="http://www.w3.org/2000/svg" xmlns:xlink="http://www.w3.org/1999/xlink" xml:space="preserve" style="fill-rule:evenodd;clip-rule:evenodd;stroke-linejoin:round;stroke-miterlimit:1.41421;">
    <g transform="matrix(0.947,-4.26909e-30,-4.26942e-30,0.947,-171.501,-54.2711)">
        <g id="Layer1">
            <path d="M325.037,439.252C305.392,431.518 287.401,420.487 271.756,406.839C287.405,420.497 305.392,431.533 325.037,439.252ZM410.037,470.955C404.198,471.516 398.275,471.775 392.292,471.775C371.389,471.775 351.218,468.613 332.245,462.741L332.022,462.672C328.735,461.652 325.484,460.55 322.246,459.359C293.646,448.847 268.056,432.088 247.145,410.696L247.022,410.571L241.852,405.148L241.037,404.208C209.205,368.791 189.649,322.152 189.08,271.006L189.078,270.856L189.019,268.502C189.019,156.312 280.103,65.228 392.292,65.228C504.482,65.228 595.566,156.312 595.566,268.502C595.566,295.142 590.43,320.591 581.037,343.901L580.946,344.131C565.295,383.178 537.859,416.246 503.022,438.892L497.663,442.329L495.037,443.84L495.037,420.57L502.079,415.561L503.022,414.82C541.582,385.608 568.247,341.512 574.398,291.094L574.38,291.241C568.172,341.592 541.531,385.643 503.022,414.82L503.022,291.094L574.398,291.094L574.421,290.921C575.372,283.588 575.835,276.098 575.835,268.502C575.835,167.202 493.592,84.959 392.292,84.959C290.992,84.959 208.75,167.202 208.75,268.502L208.809,270.856L241.037,270.856L241.037,372.39L245.233,378.289L247.022,380.564L247.022,204.872L325.037,204.872L325.037,439.252L329.211,440.899L332.022,441.851L332.022,312.128L410.037,312.128L410.037,451.172L411.047,451.096L417.022,450.335L417.022,245.553L495.037,245.553L495.037,443.84C481.9,451.586 467.812,457.889 453.003,462.531L417.022,462.531L453.003,462.531C439.314,466.822 424.997,469.699 410.211,470.941L410.037,470.955Z" style="fill:white;"/>
        </g>
    </g>
</svg>
