<svg viewBox="0 0 800 200" xmlns="http://www.w3.org/2000/svg" fill-rule="evenodd" clip-rule="evenodd" stroke-linejoin="round" stroke-miterlimit="1.414"><path fill="#227FBB" d="M72.247 60.002h80v80h-80z"/><path d="M102.323 125.197c-2.9-1.142-5.554-2.77-7.863-4.784 2.31 2.016 4.964 3.644 7.863 4.784zm12.545 4.678c-.862.083-1.736.12-2.62.12-3.084 0-6.06-.465-8.86-1.332l-.034-.01c-.485-.15-.965-.313-1.443-.49-4.22-1.55-7.996-4.024-11.082-7.18l-.02-.02-.762-.8-.12-.138c-4.698-5.227-7.584-12.11-7.668-19.66v-.02l-.01-.348c0-16.558 13.444-30 30-30 16.558 0 30 13.442 30 30 0 3.93-.757 7.687-2.143 11.127l-.014.034c-2.31 5.763-6.358 10.643-11.5 13.985l-.79.508-.387.224v-3.435l1.04-.74.138-.11c5.692-4.31 9.627-10.818 10.535-18.26l-.003.023c-.916 7.43-4.848 13.932-10.53 18.238v-18.26h10.533l.003-.025c.14-1.082.21-2.187.21-3.308 0-14.95-12.14-27.088-27.09-27.088S85.162 85.045 85.162 99.996l.01.347h4.756v14.985l.62.87.263.335v-25.93h11.513v34.592l.616.243.414.14v-19.145h11.514v20.52l.15-.01.88-.113V96.61h11.515v29.264c-1.94 1.143-4.018 2.073-6.204 2.758h-5.31 5.31c-2.02.633-4.134 1.058-6.316 1.24l-.026.003z" fill="#fff"/><g><path fill="#2C3E50" d="M155.252 60.002h572.5v80h-572.5z"/><g fill="#fff" fill-rule="nonzero"><path d="M169.118 87.594l8.466 20.767 8.434-20.766h2.433l-9.866 23.667h-2.033l-9.866-23.666h2.434zM191.384 111.26V93.895h2.267v17.367h-2.266zm0-21v-3.333h2.267v3.334h-2.266zM205.784 111.594c-1.2 0-2.31-.25-3.333-.75-1.02-.5-1.9-1.16-2.632-1.983-.734-.822-1.306-1.772-1.717-2.85-.41-1.077-.616-2.205-.616-3.383 0-1.222.2-2.383.6-3.483.4-1.1.95-2.06 1.65-2.883.7-.822 1.534-1.472 2.5-1.95.967-.477 2.028-.716 3.184-.716 1.466 0 2.766.383 3.9 1.15 1.133.767 2.022 1.694 2.666 2.783v-10.6h2.267v21.4c0 .623.268.934.8.934v2c-.332.067-.6.1-.8.1-.532 0-1-.172-1.4-.516-.4-.344-.6-.76-.6-1.25v-1.7c-.688 1.133-1.62 2.033-2.8 2.7-1.177.667-2.4 1-3.666 1zm.5-2c.556 0 1.15-.11 1.784-.333.633-.222 1.227-.527 1.783-.916.557-.39 1.03-.844 1.418-1.367.39-.522.627-1.083.716-1.683v-5.367c-.222-.6-.544-1.16-.966-1.683-.423-.522-.906-.983-1.45-1.383-.545-.4-1.128-.71-1.75-.933-.623-.222-1.234-.333-1.834-.333-.933 0-1.777.2-2.533.6-.755.4-1.405.928-1.95 1.583-.543.656-.96 1.406-1.25 2.25-.288.845-.432 1.71-.432 2.6 0 .934.166 1.823.5 2.667.333.844.79 1.583 1.366 2.217.578.634 1.26 1.14 2.05 1.517.79.378 1.64.567 2.55.567zM219.384 111.26V93.895h2.267v17.367h-2.266zm0-21v-3.333h2.267v3.334h-2.266zM226.318 97.26v-3.266h1.933v3.267h-1.932zm0 14v-3.266h1.933v3.267h-1.932zM241.884 87.594h2.333v23.667h-2.333zM264.284 111.26h-2.266v-9.7c0-2.066-.306-3.566-.917-4.5-.61-.933-1.55-1.4-2.816-1.4-.666 0-1.333.123-2 .367-.666.245-1.283.59-1.85 1.034-.566.445-1.072.973-1.516 1.584-.445.61-.767 1.272-.967 1.983v10.634h-2.266V93.895h2.067v3.933c.712-1.266 1.73-2.29 3.05-3.066 1.323-.777 2.762-1.166 4.318-1.166.955 0 1.766.178 2.433.533.668.356 1.2.856 1.6 1.5.4.645.69 1.434.868 2.367.177.933.266 1.967.266 3.1v10.167zM274.884 111.594c-1.355 0-2.677-.222-3.966-.667-1.29-.444-2.4-1.09-3.334-1.933l1.034-1.533c.977.8 1.972 1.4 2.983 1.8 1.012.4 2.095.6 3.25.6 1.4 0 2.518-.283 3.35-.85.834-.566 1.25-1.372 1.25-2.416 0-.49-.11-.894-.332-1.217-.223-.322-.55-.605-.984-.85-.433-.244-.977-.46-1.633-.65-.655-.19-1.416-.383-2.282-.583-1-.244-1.867-.49-2.6-.733-.734-.244-1.34-.522-1.817-.833-.477-.31-.832-.694-1.066-1.15-.233-.455-.35-1.027-.35-1.716 0-.866.173-1.633.517-2.3.345-.666.812-1.216 1.4-1.65.59-.433 1.28-.76 2.068-.983.79-.222 1.627-.333 2.516-.333 1.334 0 2.545.217 3.634.65 1.09.433 1.966 1.006 2.633 1.717l-1.1 1.334c-.643-.667-1.427-1.167-2.35-1.5-.92-.333-1.882-.5-2.882-.5-.6 0-1.156.06-1.667.183-.51.123-.96.317-1.35.584-.388.267-.693.606-.916 1.017-.222.41-.333.895-.333 1.45 0 .467.08.845.234 1.134.156.29.41.54.767.75.357.212.807.4 1.35.567.545.167 1.207.34 1.984.517 1.11.267 2.09.533 2.934.8.844.267 1.55.578 2.116.933.567.356.995.79 1.284 1.3.29.51.433 1.134.433 1.867 0 1.6-.61 2.867-1.832 3.8-1.223.933-2.867 1.4-4.934 1.4zM285.35 111.26V93.895h2.268v17.367h-2.267zm0-21v-3.333h2.268v3.334h-2.267zM299.584 111.494c-1.2 0-2.294-.25-3.283-.75-.988-.5-1.843-1.16-2.566-1.983-.722-.822-1.283-1.766-1.683-2.833-.4-1.066-.6-2.166-.6-3.3 0-1.2.195-2.35.584-3.45.39-1.1.94-2.06 1.65-2.883.71-.822 1.56-1.478 2.55-1.967.99-.49 2.084-.733 3.284-.733 1.49 0 2.777.372 3.866 1.117 1.09.745 2.023 1.684 2.8 2.817v-3.633h2.034v17.433c0 1.2-.228 2.26-.684 3.184-.455.923-1.066 1.695-1.833 2.317-.766.623-1.666 1.09-2.7 1.4-1.032.31-2.127.467-3.282.467-2 0-3.61-.356-4.834-1.067-1.222-.71-2.21-1.666-2.966-2.866l1.4-1.1c.69 1.112 1.6 1.928 2.733 2.45 1.134.523 2.357.784 3.668.784.844 0 1.644-.117 2.4-.35.755-.233 1.416-.578 1.983-1.033.568-.455 1.018-1.033 1.35-1.733.334-.7.5-1.516.5-2.45v-3.433c-.666 1.11-1.577 1.99-2.732 2.633-1.156.645-2.367.967-3.634.967zm.634-1.9c.666 0 1.322-.122 1.966-.367.645-.244 1.228-.572 1.75-.983.523-.41.96-.872 1.317-1.383.357-.51.59-1.033.7-1.566v-5.367c-.243-.622-.577-1.2-1-1.733-.42-.533-.9-.99-1.432-1.367-.534-.377-1.106-.677-1.717-.9-.61-.222-1.227-.333-1.85-.333-.977 0-1.85.206-2.616.617-.766.412-1.416.95-1.95 1.617-.533.667-.94 1.423-1.216 2.267-.278.844-.417 1.7-.417 2.567 0 .934.168 1.823.5 2.667.334.845.795 1.584 1.384 2.217.59.633 1.273 1.133 2.05 1.5.778.367 1.623.55 2.534.55zM327.818 111.26h-2.267v-9.7c0-1.977-.338-3.455-1.016-4.433-.677-.977-1.672-1.466-2.983-1.466-.643 0-1.282.128-1.916.384-.633.256-1.227.606-1.783 1.05-.555.444-1.038.967-1.45 1.567-.41.6-.716 1.256-.916 1.967v10.634h-2.266V86.928h2.266v10.9c.69-1.31 1.645-2.344 2.867-3.1 1.223-.755 2.545-1.133 3.968-1.133 1 0 1.844.183 2.533.55.69.367 1.257.878 1.7 1.533.445.656.768 1.445.968 2.367.2.922.3 1.94.3 3.05v10.167zM340.818 110.427c-.134.067-.328.156-.584.267-.255.11-.55.222-.883.333-.332.11-.71.21-1.132.3-.423.09-.867.134-1.334.134-.49 0-.955-.066-1.4-.2-.444-.133-.833-.338-1.166-.616-.334-.278-.6-.628-.8-1.05-.2-.422-.3-.91-.3-1.467V95.694h-2.4v-1.8h2.4v-5.867h2.266v5.867h4v1.8h-4v11.8c.045.644.273 1.117.684 1.417.41.3.883.45 1.416.45.645 0 1.21-.105 1.7-.316.49-.21.8-.36.934-.45l.6 1.833zM349.418 111.594c-1.356 0-2.678-.222-3.967-.667-1.288-.444-2.4-1.09-3.332-1.933l1.033-1.533c.98.8 1.973 1.4 2.984 1.8 1.01.4 2.095.6 3.25.6 1.4 0 2.517-.283 3.35-.85.834-.566 1.25-1.372 1.25-2.416 0-.49-.11-.894-.333-1.217-.22-.322-.55-.605-.982-.85-.434-.244-.978-.46-1.634-.65-.655-.19-1.416-.383-2.283-.583-1-.244-1.866-.49-2.6-.733-.732-.244-1.338-.522-1.816-.833-.477-.31-.833-.694-1.066-1.15-.234-.455-.35-1.027-.35-1.716 0-.866.172-1.633.516-2.3.345-.666.81-1.216 1.4-1.65.59-.433 1.278-.76 2.067-.983.79-.222 1.63-.333 2.518-.333 1.333 0 2.544.217 3.633.65 1.09.433 1.968 1.006 2.634 1.717l-1.1 1.334c-.644-.667-1.427-1.167-2.35-1.5-.922-.333-1.883-.5-2.883-.5-.6 0-1.155.06-1.666.183-.51.123-.96.317-1.35.584-.39.267-.694.606-.916 1.017-.223.41-.334.895-.334 1.45 0 .467.078.845.234 1.134.155.29.41.54.766.75.356.212.806.4 1.35.567.545.167 1.206.34 1.984.517 1.11.267 2.09.533 2.933.8.845.267 1.55.578 2.118.933.566.356.994.79 1.283 1.3.29.51.434 1.134.434 1.867 0 1.6-.61 2.867-1.833 3.8-1.22.933-2.866 1.4-4.932 1.4z"/></g></g></svg>