<?xml version="1.0" standalone="no"?>
<!DOCTYPE svg PUBLIC "-//W3C//DTD SVG 1.1//EN" "http://www.w3.org/Graphics/SVG/1.1/DTD/svg11.dtd">
<svg width="100%" height="100%" viewBox="0 0 800 200" version="1.1" xmlns="http://www.w3.org/2000/svg" xmlns:xlink="http://www.w3.org/1999/xlink" xml:space="preserve" style="fill-rule:evenodd;clip-rule:evenodd;stroke-linejoin:round;stroke-miterlimit:1.41421;">
    <g transform="matrix(1,0,0,1,-826.657,-1654.94)">
        <g id="Layer1">
            <g>
                <g transform="matrix(1,0,0,1,-308,32)">
                    <g transform="matrix(0.240964,-2.91624e-16,-1.8591e-16,1.56863,1149.6,1639.02)">
                        <rect x="409" y="28" width="332" height="51" style="fill:rgb(34,127,187);"/>
                    </g>
                    <g transform="matrix(0.147584,4.17409e-31,4.15351e-31,0.147584,1230.26,1683.31)">
                        <g>
                            <path d="M325.037,439.252C305.392,431.518 287.401,420.487 271.756,406.839C287.405,420.497 305.392,431.533 325.037,439.252ZM410.037,470.955C404.198,471.516 398.275,471.775 392.292,471.775C371.389,471.775 351.218,468.613 332.245,462.741L332.022,462.672C328.735,461.652 325.484,460.55 322.246,459.359C293.646,448.847 268.056,432.088 247.145,410.696L247.022,410.571L241.852,405.148L241.037,404.208C209.205,368.791 189.649,322.152 189.08,271.006L189.078,270.856L189.019,268.502C189.019,156.312 280.103,65.228 392.292,65.228C504.482,65.228 595.566,156.312 595.566,268.502C595.566,295.142 590.43,320.591 581.037,343.901L580.946,344.131C565.295,383.178 537.859,416.246 503.022,438.892L497.663,442.329L495.037,443.84L495.037,420.57L502.079,415.561L503.022,414.82C541.582,385.608 568.247,341.512 574.398,291.094L574.38,291.241C568.172,341.592 541.531,385.643 503.022,414.82L503.022,291.094L574.398,291.094L574.421,290.921C575.372,283.588 575.835,276.098 575.835,268.502C575.835,167.202 493.592,84.959 392.292,84.959C290.992,84.959 208.75,167.202 208.75,268.502L208.809,270.856L241.037,270.856L241.037,372.39L245.233,378.289L247.022,380.564L247.022,204.872L325.037,204.872L325.037,439.252L329.211,440.899L332.022,441.851L332.022,312.128L410.037,312.128L410.037,451.172L411.047,451.096L417.022,450.335L417.022,245.553L495.037,245.553L495.037,443.84C481.9,451.586 467.812,457.889 453.003,462.531L417.022,462.531L453.003,462.531C439.314,466.822 424.997,469.699 410.211,470.941L410.037,470.955Z" style="fill:white;"/>
                        </g>
                    </g>
                </g>
                <g>
                    <g transform="matrix(1.4759,-1.738e-17,-1.76245e-17,1.56863,419.513,1671.02)">
                        <rect x="409" y="28" width="332" height="51" style="fill:rgb(44,62,80);"/>
                    </g>
                    <g transform="matrix(1,0,0,1,828.412,1673.85)">
                        <path d="M208.613,68.684L217.079,89.451L225.513,68.684L227.946,68.684L218.079,92.351L216.046,92.351L206.179,68.684L208.613,68.684Z" style="fill:white;fill-rule:nonzero;"/>
                        <path d="M230.879,92.351L230.879,74.984L233.146,74.984L233.146,92.351L230.879,92.351ZM230.879,71.351L230.879,68.017L233.146,68.017L233.146,71.351L230.879,71.351Z" style="fill:white;fill-rule:nonzero;"/>
                        <path d="M245.279,92.684C244.079,92.684 242.968,92.434 241.946,91.934C240.924,91.434 240.046,90.773 239.313,89.951C238.579,89.128 238.007,88.178 237.596,87.101C237.185,86.023 236.979,84.895 236.979,83.717C236.979,82.495 237.179,81.334 237.579,80.234C237.979,79.134 238.529,78.173 239.229,77.351C239.929,76.528 240.763,75.878 241.729,75.401C242.696,74.923 243.757,74.684 244.913,74.684C246.379,74.684 247.679,75.067 248.813,75.834C249.946,76.601 250.835,77.528 251.479,78.617L251.479,68.017L253.746,68.017L253.746,89.417C253.746,90.04 254.013,90.351 254.546,90.351L254.546,92.351C254.213,92.417 253.946,92.451 253.746,92.451C253.213,92.451 252.746,92.278 252.346,91.934C251.946,91.59 251.746,91.173 251.746,90.684L251.746,88.984C251.057,90.117 250.124,91.017 248.946,91.684C247.768,92.351 246.546,92.684 245.279,92.684ZM245.779,90.684C246.335,90.684 246.929,90.573 247.563,90.351C248.196,90.128 248.79,89.823 249.346,89.434C249.902,89.045 250.374,88.59 250.763,88.067C251.152,87.545 251.39,86.984 251.479,86.384L251.479,81.017C251.257,80.417 250.935,79.856 250.513,79.334C250.09,78.812 249.607,78.351 249.063,77.951C248.518,77.551 247.935,77.24 247.313,77.017C246.69,76.795 246.079,76.684 245.479,76.684C244.546,76.684 243.702,76.884 242.946,77.284C242.19,77.684 241.54,78.212 240.996,78.867C240.452,79.523 240.035,80.273 239.746,81.117C239.457,81.962 239.313,82.828 239.313,83.717C239.313,84.651 239.479,85.54 239.813,86.384C240.146,87.228 240.602,87.967 241.179,88.601C241.757,89.234 242.44,89.74 243.229,90.117C244.018,90.495 244.868,90.684 245.779,90.684Z" style="fill:white;fill-rule:nonzero;"/>
                        <path d="M258.879,92.351L258.879,74.984L261.146,74.984L261.146,92.351L258.879,92.351ZM258.879,71.351L258.879,68.017L261.146,68.017L261.146,71.351L258.879,71.351Z" style="fill:white;fill-rule:nonzero;"/>
                        <path d="M265.813,78.351L265.813,75.084L267.746,75.084L267.746,78.351L265.813,78.351ZM265.813,92.351L265.813,89.084L267.746,89.084L267.746,92.351L265.813,92.351Z" style="fill:white;fill-rule:nonzero;"/>
                        <rect x="281.379" y="68.684" width="2.333" height="23.667" style="fill:white;fill-rule:nonzero;"/>
                        <path d="M303.779,92.351L301.513,92.351L301.513,82.651C301.513,80.584 301.207,79.084 300.596,78.151C299.985,77.217 299.046,76.751 297.779,76.751C297.113,76.751 296.446,76.873 295.779,77.117C295.113,77.362 294.496,77.706 293.929,78.151C293.363,78.595 292.857,79.123 292.413,79.734C291.968,80.345 291.646,81.006 291.446,81.717L291.446,92.351L289.179,92.351L289.179,74.984L291.246,74.984L291.246,78.917C291.957,77.651 292.974,76.628 294.296,75.851C295.618,75.073 297.057,74.684 298.613,74.684C299.568,74.684 300.379,74.862 301.046,75.217C301.713,75.573 302.246,76.073 302.646,76.717C303.046,77.362 303.335,78.151 303.513,79.084C303.69,80.017 303.779,81.051 303.779,82.184L303.779,92.351Z" style="fill:white;fill-rule:nonzero;"/>
                        <path d="M314.379,92.684C313.024,92.684 311.702,92.462 310.413,92.017C309.124,91.573 308.013,90.928 307.079,90.084L308.113,88.551C309.09,89.351 310.085,89.951 311.096,90.351C312.107,90.751 313.19,90.951 314.346,90.951C315.746,90.951 316.863,90.667 317.696,90.101C318.529,89.534 318.946,88.728 318.946,87.684C318.946,87.195 318.835,86.79 318.613,86.467C318.39,86.145 318.063,85.862 317.629,85.617C317.196,85.373 316.652,85.156 315.996,84.967C315.34,84.778 314.579,84.584 313.713,84.384C312.713,84.14 311.846,83.895 311.113,83.651C310.379,83.406 309.774,83.128 309.296,82.817C308.818,82.506 308.463,82.123 308.229,81.667C307.996,81.212 307.879,80.64 307.879,79.951C307.879,79.084 308.052,78.317 308.396,77.651C308.74,76.984 309.207,76.434 309.796,76.001C310.385,75.567 311.074,75.24 311.863,75.017C312.652,74.795 313.49,74.684 314.379,74.684C315.713,74.684 316.924,74.901 318.013,75.334C319.102,75.767 319.979,76.34 320.646,77.051L319.546,78.384C318.902,77.717 318.118,77.217 317.196,76.884C316.274,76.551 315.313,76.384 314.313,76.384C313.713,76.384 313.157,76.445 312.646,76.567C312.135,76.69 311.685,76.884 311.296,77.151C310.907,77.417 310.602,77.756 310.379,78.167C310.157,78.578 310.046,79.062 310.046,79.617C310.046,80.084 310.124,80.462 310.279,80.751C310.435,81.04 310.69,81.29 311.046,81.501C311.402,81.712 311.852,81.901 312.396,82.067C312.94,82.234 313.602,82.406 314.379,82.584C315.49,82.851 316.468,83.117 317.313,83.384C318.157,83.651 318.863,83.962 319.429,84.317C319.996,84.673 320.424,85.106 320.713,85.617C321.002,86.128 321.146,86.751 321.146,87.484C321.146,89.084 320.535,90.351 319.313,91.284C318.09,92.217 316.446,92.684 314.379,92.684Z" style="fill:white;fill-rule:nonzero;"/>
                        <path d="M324.846,92.351L324.846,74.984L327.113,74.984L327.113,92.351L324.846,92.351ZM324.846,71.351L324.846,68.017L327.113,68.017L327.113,71.351L324.846,71.351Z" style="fill:white;fill-rule:nonzero;"/>
                        <path d="M339.079,92.584C337.879,92.584 336.785,92.334 335.796,91.834C334.807,91.334 333.952,90.673 333.229,89.851C332.507,89.028 331.946,88.084 331.546,87.017C331.146,85.951 330.946,84.851 330.946,83.717C330.946,82.517 331.14,81.367 331.529,80.267C331.918,79.167 332.468,78.206 333.179,77.384C333.89,76.562 334.74,75.906 335.729,75.417C336.718,74.928 337.813,74.684 339.013,74.684C340.502,74.684 341.79,75.056 342.879,75.801C343.968,76.545 344.902,77.484 345.679,78.617L345.679,74.984L347.713,74.984L347.713,92.417C347.713,93.617 347.485,94.678 347.029,95.601C346.574,96.523 345.963,97.295 345.196,97.917C344.429,98.54 343.529,99.006 342.496,99.317C341.463,99.628 340.368,99.784 339.213,99.784C337.213,99.784 335.602,99.428 334.379,98.717C333.157,98.006 332.168,97.051 331.413,95.851L332.813,94.751C333.502,95.862 334.413,96.678 335.546,97.201C336.679,97.723 337.902,97.984 339.213,97.984C340.057,97.984 340.857,97.867 341.613,97.634C342.368,97.401 343.029,97.056 343.596,96.601C344.163,96.145 344.613,95.567 344.946,94.867C345.279,94.167 345.446,93.351 345.446,92.417L345.446,88.984C344.779,90.095 343.868,90.973 342.713,91.617C341.557,92.262 340.346,92.584 339.079,92.584ZM339.713,90.684C340.379,90.684 341.035,90.562 341.679,90.317C342.324,90.073 342.907,89.745 343.429,89.334C343.952,88.923 344.39,88.462 344.746,87.951C345.102,87.44 345.335,86.917 345.446,86.384L345.446,81.017C345.202,80.395 344.868,79.817 344.446,79.284C344.024,78.751 343.546,78.295 343.013,77.917C342.479,77.54 341.907,77.24 341.296,77.017C340.685,76.795 340.068,76.684 339.446,76.684C338.468,76.684 337.596,76.89 336.829,77.301C336.063,77.712 335.413,78.251 334.879,78.917C334.346,79.584 333.94,80.34 333.663,81.184C333.385,82.028 333.246,82.884 333.246,83.751C333.246,84.684 333.413,85.573 333.746,86.417C334.079,87.262 334.54,88.001 335.129,88.634C335.718,89.267 336.402,89.767 337.179,90.134C337.957,90.501 338.802,90.684 339.713,90.684Z" style="fill:white;fill-rule:nonzero;"/>
                        <path d="M367.313,92.351L365.046,92.351L365.046,82.651C365.046,80.673 364.707,79.195 364.029,78.217C363.352,77.24 362.357,76.751 361.046,76.751C360.402,76.751 359.763,76.878 359.129,77.134C358.496,77.39 357.902,77.74 357.346,78.184C356.79,78.628 356.307,79.151 355.896,79.751C355.485,80.351 355.179,81.006 354.979,81.717L354.979,92.351L352.713,92.351L352.713,68.017L354.979,68.017L354.979,78.917C355.668,77.606 356.624,76.573 357.846,75.817C359.068,75.062 360.39,74.684 361.813,74.684C362.813,74.684 363.657,74.867 364.346,75.234C365.035,75.601 365.602,76.112 366.046,76.767C366.49,77.423 366.813,78.212 367.013,79.134C367.213,80.056 367.313,81.073 367.313,82.184L367.313,92.351Z" style="fill:white;fill-rule:nonzero;"/>
                        <path d="M380.313,91.517C380.179,91.584 379.985,91.673 379.729,91.784C379.474,91.895 379.179,92.006 378.846,92.117C378.513,92.228 378.135,92.328 377.713,92.417C377.29,92.506 376.846,92.551 376.379,92.551C375.89,92.551 375.424,92.484 374.979,92.351C374.535,92.217 374.146,92.012 373.813,91.734C373.479,91.456 373.213,91.106 373.013,90.684C372.813,90.262 372.713,89.773 372.713,89.217L372.713,76.784L370.313,76.784L370.313,74.984L372.713,74.984L372.713,69.117L374.979,69.117L374.979,74.984L378.979,74.984L378.979,76.784L374.979,76.784L374.979,88.584C375.024,89.228 375.252,89.701 375.663,90.001C376.074,90.301 376.546,90.451 377.079,90.451C377.724,90.451 378.29,90.345 378.779,90.134C379.268,89.923 379.579,89.773 379.713,89.684L380.313,91.517Z" style="fill:white;fill-rule:nonzero;"/>
                        <path d="M388.913,92.684C387.557,92.684 386.235,92.462 384.946,92.017C383.657,91.573 382.546,90.928 381.613,90.084L382.646,88.551C383.624,89.351 384.618,89.951 385.629,90.351C386.64,90.751 387.724,90.951 388.879,90.951C390.279,90.951 391.396,90.667 392.229,90.101C393.063,89.534 393.479,88.728 393.479,87.684C393.479,87.195 393.368,86.79 393.146,86.467C392.924,86.145 392.596,85.862 392.163,85.617C391.729,85.373 391.185,85.156 390.529,84.967C389.874,84.778 389.113,84.584 388.246,84.384C387.246,84.14 386.379,83.895 385.646,83.651C384.913,83.406 384.307,83.128 383.829,82.817C383.352,82.506 382.996,82.123 382.763,81.667C382.529,81.212 382.413,80.64 382.413,79.951C382.413,79.084 382.585,78.317 382.929,77.651C383.274,76.984 383.74,76.434 384.329,76.001C384.918,75.567 385.607,75.24 386.396,75.017C387.185,74.795 388.024,74.684 388.913,74.684C390.246,74.684 391.457,74.901 392.546,75.334C393.635,75.767 394.513,76.34 395.179,77.051L394.079,78.384C393.435,77.717 392.652,77.217 391.729,76.884C390.807,76.551 389.846,76.384 388.846,76.384C388.246,76.384 387.69,76.445 387.179,76.567C386.668,76.69 386.218,76.884 385.829,77.151C385.44,77.417 385.135,77.756 384.913,78.167C384.69,78.578 384.579,79.062 384.579,79.617C384.579,80.084 384.657,80.462 384.813,80.751C384.968,81.04 385.224,81.29 385.579,81.501C385.935,81.712 386.385,81.901 386.929,82.067C387.474,82.234 388.135,82.406 388.913,82.584C390.024,82.851 391.002,83.117 391.846,83.384C392.69,83.651 393.396,83.962 393.963,84.317C394.529,84.673 394.957,85.106 395.246,85.617C395.535,86.128 395.679,86.751 395.679,87.484C395.679,89.084 395.068,90.351 393.846,91.284C392.624,92.217 390.979,92.684 388.913,92.684Z" style="fill:white;fill-rule:nonzero;"/>
                    </g>
                </g>
            </g>
        </g>
    </g>
</svg>
